<?xml version="1.0" encoding="UTF-8" standalone="no"?>
<!DOCTYPE svg PUBLIC "-//W3C//DTD SVG 1.1//EN"
 "http://www.w3.org/Graphics/SVG/1.1/DTD/svg11.dtd">
<!-- Generated by graphviz version 2.42.4 (0)
 -->
<!-- Title: ChessGame Pages: 1 -->
<svg width="1800pt" height="1937pt"
 viewBox="0.00 0.00 1800.00 1937.19" xmlns="http://www.w3.org/2000/svg" xmlns:xlink="http://www.w3.org/1999/xlink">
<g id="graph0" class="graph" transform="scale(1 1) rotate(0) translate(4 1933.19)">
<title>ChessGame</title>
<polygon fill="white" stroke="transparent" points="-4,4 -4,-1933.19 1796,-1933.19 1796,4 -4,4"/>
<g id="clust1" class="cluster">
<title>cluster_boot</title>
<polygon fill="none" stroke="black" stroke-dasharray="5,2" points="612,-1492.19 612,-1837.19 912,-1837.19 912,-1492.19 612,-1492.19"/>
<text text-anchor="middle" x="762" y="-1821.99" font-family="Helvetica,sans-Serif" font-size="14.00">Boot</text>
</g>
<g id="clust2" class="cluster">
<title>cluster_loop</title>
<polygon fill="none" stroke="black" stroke-dasharray="5,2" points="8,-110.19 8,-1473.19 1636,-1473.19 1636,-110.19 8,-110.19"/>
<text text-anchor="middle" x="822" y="-1457.99" font-family="Helvetica,sans-Serif" font-size="14.00">Game Loop</text>
</g>
<!-- Start -->
<g id="node1" class="node">
<title>Start</title>
<ellipse fill="none" stroke="black" cx="762" cy="-1896.69" rx="32.49" ry="32.49"/>
<text text-anchor="middle" x="762" y="-1892.99" font-family="Helvetica,sans-Serif" font-size="14.00">Start</text>
</g>
<!-- main -->
<g id="node3" class="node">
<title>main</title>
<polygon fill="none" stroke="black" points="851.5,-1806.19 672.5,-1806.19 672.5,-1770.19 851.5,-1770.19 851.5,-1806.19"/>
<text text-anchor="middle" x="762" y="-1784.49" font-family="Helvetica,sans-Serif" font-size="14.00">ChessGame.main(args)</text>
</g>
<!-- Start&#45;&gt;main -->
<g id="edge1" class="edge">
<title>Start&#45;&gt;main</title>
<path fill="none" stroke="black" d="M762,-1864.03C762,-1848.98 762,-1831.16 762,-1816.69"/>
<polygon fill="black" stroke="black" points="765.5,-1816.37 762,-1806.37 758.5,-1816.37 765.5,-1816.37"/>
</g>
<!-- End -->
<g id="node2" class="node">
<title>End</title>
<ellipse fill="none" stroke="black" cx="1718" cy="-32.6" rx="28.68" ry="28.68"/>
<ellipse fill="none" stroke="black" cx="1718" cy="-32.6" rx="32.7" ry="32.7"/>
<text text-anchor="middle" x="1718" y="-28.9" font-family="Helvetica,sans-Serif" font-size="14.00">End</text>
</g>
<!-- construct -->
<g id="node4" class="node">
<title>construct</title>
<polygon fill="none" stroke="black" points="904,-1733.19 620,-1733.19 620,-1635.19 904,-1635.19 904,-1733.19"/>
<text text-anchor="middle" x="762" y="-1717.99" font-family="Helvetica,sans-Serif" font-size="14.00">new ChessGame()</text>
<text text-anchor="middle" x="762" y="-1702.99" font-family="Helvetica,sans-Serif" font-size="14.00">&#45; new Board</text>
<text text-anchor="middle" x="762" y="-1687.99" font-family="Helvetica,sans-Serif" font-size="14.00">&#45; new Scanner</text>
<text text-anchor="middle" x="762" y="-1672.99" font-family="Helvetica,sans-Serif" font-size="14.00">&#45; new MoveLogger</text>
<text text-anchor="middle" x="762" y="-1657.99" font-family="Helvetica,sans-Serif" font-size="14.00">&#45; displayMode=COLORED_BRACKETED</text>
<text text-anchor="middle" x="762" y="-1642.99" font-family="Helvetica,sans-Serif" font-size="14.00">&#45; create saves/</text>
</g>
<!-- main&#45;&gt;construct -->
<g id="edge2" class="edge">
<title>main&#45;&gt;construct</title>
<path fill="none" stroke="black" d="M762,-1769.89C762,-1762.38 762,-1753.11 762,-1743.48"/>
<polygon fill="black" stroke="black" points="765.5,-1743.38 762,-1733.38 758.5,-1743.38 765.5,-1743.38"/>
</g>
<!-- init -->
<g id="node5" class="node">
<title>init</title>
<polygon fill="none" stroke="black" points="824.5,-1598.19 699.5,-1598.19 699.5,-1500.19 824.5,-1500.19 824.5,-1598.19"/>
<text text-anchor="middle" x="762" y="-1582.99" font-family="Helvetica,sans-Serif" font-size="14.00">initializeGame()</text>
<text text-anchor="middle" x="762" y="-1567.99" font-family="Helvetica,sans-Serif" font-size="14.00">&#45; welcome</text>
<text text-anchor="middle" x="762" y="-1552.99" font-family="Helvetica,sans-Serif" font-size="14.00">&#45; setupPlayers</text>
<text text-anchor="middle" x="762" y="-1537.99" font-family="Helvetica,sans-Serif" font-size="14.00">&#45; logGameStart</text>
<text text-anchor="middle" x="762" y="-1522.99" font-family="Helvetica,sans-Serif" font-size="14.00">&#45; features</text>
<text text-anchor="middle" x="762" y="-1507.99" font-family="Helvetica,sans-Serif" font-size="14.00">&#45; instructions</text>
</g>
<!-- construct&#45;&gt;init -->
<g id="edge3" class="edge">
<title>construct&#45;&gt;init</title>
<path fill="none" stroke="black" d="M762,-1635.18C762,-1626.62 762,-1617.62 762,-1608.81"/>
<polygon fill="black" stroke="black" points="765.5,-1608.59 762,-1598.59 758.5,-1608.59 765.5,-1608.59"/>
</g>
<!-- loop_chk -->
<g id="node6" class="node">
<title>loop_chk</title>
<polygon fill="none" stroke="black" points="762,-1442.19 547.67,-1424.19 762,-1406.19 976.33,-1424.19 762,-1442.19"/>
<text text-anchor="middle" x="762" y="-1420.49" font-family="Helvetica,sans-Serif" font-size="14.00">gameRunning &amp;&amp; !gameEnded</text>
</g>
<!-- init&#45;&gt;loop_chk -->
<g id="edge4" class="edge">
<title>init&#45;&gt;loop_chk</title>
<path fill="none" stroke="black" d="M762,-1499.94C762,-1483.9 762,-1466.6 762,-1452.69"/>
<polygon fill="black" stroke="black" points="765.5,-1452.34 762,-1442.34 758.5,-1452.34 765.5,-1452.34"/>
</g>
<!-- display -->
<g id="node7" class="node">
<title>display</title>
<polygon fill="none" stroke="black" points="866,-1355.19 658,-1355.19 658,-1287.19 866,-1287.19 866,-1355.19"/>
<text text-anchor="middle" x="762" y="-1339.99" font-family="Helvetica,sans-Serif" font-size="14.00">displayGameState()</text>
<text text-anchor="middle" x="762" y="-1324.99" font-family="Helvetica,sans-Serif" font-size="14.00">&#45; displayBoard()</text>
<text text-anchor="middle" x="762" y="-1309.99" font-family="Helvetica,sans-Serif" font-size="14.00">&#45; displayCurrentPlayerInfo()</text>
<text text-anchor="middle" x="762" y="-1294.99" font-family="Helvetica,sans-Serif" font-size="14.00">&#45; displayGameStatus()</text>
</g>
<!-- loop_chk&#45;&gt;display -->
<g id="edge5" class="edge">
<title>loop_chk&#45;&gt;display</title>
<path fill="none" stroke="black" d="M762,-1406.06C762,-1394.92 762,-1379.86 762,-1365.57"/>
<polygon fill="black" stroke="black" points="765.5,-1365.37 762,-1355.37 758.5,-1365.37 765.5,-1365.37"/>
<text text-anchor="middle" x="773.5" y="-1376.99" font-family="Helvetica,sans-Serif" font-size="14.00">Yes</text>
</g>
<!-- cleanup -->
<g id="node32" class="node">
<title>cleanup</title>
<polygon fill="none" stroke="black" points="1792,-170.19 1644,-170.19 1644,-102.19 1792,-102.19 1792,-170.19"/>
<text text-anchor="middle" x="1718" y="-154.99" font-family="Helvetica,sans-Serif" font-size="14.00">cleanupGame()</text>
<text text-anchor="middle" x="1718" y="-139.99" font-family="Helvetica,sans-Serif" font-size="14.00">&#45; log end if needed</text>
<text text-anchor="middle" x="1718" y="-124.99" font-family="Helvetica,sans-Serif" font-size="14.00">&#45; close scanner</text>
<text text-anchor="middle" x="1718" y="-109.99" font-family="Helvetica,sans-Serif" font-size="14.00">&#45; farewell</text>
</g>
<!-- loop_chk&#45;&gt;cleanup -->
<g id="edge6" class="edge">
<title>loop_chk&#45;&gt;cleanup</title>
<path fill="none" stroke="black" d="M942.27,-1421.32C1211.41,-1416.08 1687,-1396.33 1687,-1322.19 1687,-1322.19 1687,-1322.19 1687,-232.69 1687,-214.94 1691.91,-196.19 1697.82,-180.06"/>
<polygon fill="black" stroke="black" points="1701.22,-180.97 1701.59,-170.38 1694.7,-178.42 1701.22,-180.97"/>
<text text-anchor="middle" x="1696.5" y="-743.99" font-family="Helvetica,sans-Serif" font-size="14.00">No</text>
</g>
<!-- incheck -->
<g id="node8" class="node">
<title>incheck</title>
<polygon fill="none" stroke="black" points="762,-1250.19 588.06,-1232.19 762,-1214.19 935.94,-1232.19 762,-1250.19"/>
<text text-anchor="middle" x="762" y="-1228.49" font-family="Helvetica,sans-Serif" font-size="14.00">Board.isInCheck(current)</text>
</g>
<!-- display&#45;&gt;incheck -->
<g id="edge7" class="edge">
<title>display&#45;&gt;incheck</title>
<path fill="none" stroke="black" d="M762,-1286.81C762,-1278.05 762,-1268.71 762,-1260.32"/>
<polygon fill="black" stroke="black" points="765.5,-1260.32 762,-1250.32 758.5,-1260.32 765.5,-1260.32"/>
</g>
<!-- getinput -->
<g id="node9" class="node">
<title>getinput</title>
<polygon fill="none" stroke="black" points="862.5,-1163.19 661.5,-1163.19 661.5,-1127.19 862.5,-1127.19 862.5,-1163.19"/>
<text text-anchor="middle" x="762" y="-1141.49" font-family="Helvetica,sans-Serif" font-size="14.00">getPlayerInput() (Scanner)</text>
</g>
<!-- incheck&#45;&gt;getinput -->
<g id="edge8" class="edge">
<title>incheck&#45;&gt;getinput</title>
<path fill="none" stroke="black" d="M721.73,-1218.31C702.39,-1209.78 685.3,-1197.21 695,-1181.19 697.69,-1176.75 701.16,-1172.84 705.09,-1169.41"/>
<polygon fill="black" stroke="black" points="707.23,-1172.18 713.15,-1163.39 703.04,-1166.57 707.23,-1172.18"/>
<text text-anchor="middle" x="751.5" y="-1184.99" font-family="Helvetica,sans-Serif" font-size="14.00">log check if true</text>
</g>
<!-- incheck&#45;&gt;getinput -->
<g id="edge9" class="edge">
<title>incheck&#45;&gt;getinput</title>
<path fill="none" stroke="black" d="M789.1,-1216.98C802.66,-1207.81 814.86,-1195.04 808,-1181.19 805.99,-1177.14 803.26,-1173.43 800.13,-1170.06"/>
<polygon fill="black" stroke="black" points="802.47,-1167.46 792.75,-1163.26 797.73,-1172.61 802.47,-1167.46"/>
<text text-anchor="middle" x="826" y="-1184.99" font-family="Helvetica,sans-Serif" font-size="14.00">false</text>
</g>
<!-- proc -->
<g id="node10" class="node">
<title>proc</title>
<polygon fill="none" stroke="black" points="838.5,-1090.19 685.5,-1090.19 685.5,-1054.19 838.5,-1054.19 838.5,-1090.19"/>
<text text-anchor="middle" x="762" y="-1068.49" font-family="Helvetica,sans-Serif" font-size="14.00">processInput(input)</text>
</g>
<!-- getinput&#45;&gt;proc -->
<g id="edge10" class="edge">
<title>getinput&#45;&gt;proc</title>
<path fill="none" stroke="black" d="M762,-1127.01C762,-1118.98 762,-1109.24 762,-1100.26"/>
<polygon fill="black" stroke="black" points="765.5,-1100.22 762,-1090.22 758.5,-1100.22 765.5,-1100.22"/>
</g>
<!-- help -->
<g id="node11" class="node">
<title>help</title>
<polygon fill="none" stroke="black" points="458,-987.19 350,-987.19 350,-951.19 458,-951.19 458,-987.19"/>
<text text-anchor="middle" x="404" y="-965.49" font-family="Helvetica,sans-Serif" font-size="14.00">displayHelp()</text>
</g>
<!-- proc&#45;&gt;help -->
<g id="edge11" class="edge">
<title>proc&#45;&gt;help</title>
<path fill="none" stroke="black" d="M685.47,-1067.71C591.97,-1062.77 443.74,-1052.48 424,-1036.19 412.59,-1026.78 407.54,-1011.09 405.36,-997.37"/>
<polygon fill="black" stroke="black" points="408.83,-996.92 404.2,-987.39 401.88,-997.73 408.83,-996.92"/>
<text text-anchor="middle" x="439.5" y="-1024.99" font-family="Helvetica,sans-Serif" font-size="14.00">help</text>
</g>
<!-- pip -->
<g id="node12" class="node">
<title>pip</title>
<polygon fill="none" stroke="black" points="331.5,-988.19 56.5,-988.19 56.5,-950.19 331.5,-950.19 331.5,-988.19"/>
<text text-anchor="middle" x="194" y="-972.99" font-family="Helvetica,sans-Serif" font-size="14.00">displayValidMoves()</text>
<text text-anchor="middle" x="194" y="-957.99" font-family="Helvetica,sans-Serif" font-size="14.00">Board.getAllValidMoves(currentColor)</text>
</g>
<!-- proc&#45;&gt;pip -->
<g id="edge13" class="edge">
<title>proc&#45;&gt;pip</title>
<path fill="none" stroke="black" d="M685.22,-1069.39C608.65,-1066.34 488.07,-1058.16 386,-1036.19 337.56,-1025.77 284.42,-1006.89 246.35,-991.99"/>
<polygon fill="black" stroke="black" points="247.59,-988.72 237.01,-988.29 245.02,-995.22 247.59,-988.72"/>
<text text-anchor="middle" x="397" y="-1024.99" font-family="Helvetica,sans-Serif" font-size="14.00">pip</text>
</g>
<!-- displaycmd -->
<g id="node13" class="node">
<title>displaycmd</title>
<polygon fill="none" stroke="black" points="1418,-995.69 1236,-995.69 1236,-942.69 1418,-942.69 1418,-995.69"/>
<text text-anchor="middle" x="1327" y="-980.49" font-family="Helvetica,sans-Serif" font-size="14.00">toggleDisplayMode()</text>
<text text-anchor="middle" x="1327" y="-965.49" font-family="Helvetica,sans-Serif" font-size="14.00">Board.setDisplayMode()</text>
<text text-anchor="middle" x="1327" y="-950.49" font-family="Helvetica,sans-Serif" font-size="14.00">displayBoard()</text>
</g>
<!-- proc&#45;&gt;displaycmd -->
<g id="edge15" class="edge">
<title>proc&#45;&gt;displaycmd</title>
<path fill="none" stroke="black" d="M838.6,-1064.66C931.51,-1055.66 1092.4,-1036.65 1227,-1003.19 1232.63,-1001.8 1238.39,-1000.24 1244.18,-998.58"/>
<polygon fill="black" stroke="black" points="1245.31,-1001.9 1253.91,-995.71 1243.33,-995.18 1245.31,-1001.9"/>
<text text-anchor="middle" x="1164" y="-1024.99" font-family="Helvetica,sans-Serif" font-size="14.00">display</text>
</g>
<!-- save -->
<g id="node14" class="node">
<title>save</title>
<polygon fill="none" stroke="black" points="1627.5,-1003.19 1436.5,-1003.19 1436.5,-935.19 1627.5,-935.19 1627.5,-1003.19"/>
<text text-anchor="middle" x="1532" y="-987.99" font-family="Helvetica,sans-Serif" font-size="14.00">save &lt;name&gt;</text>
<text text-anchor="middle" x="1532" y="-972.99" font-family="Helvetica,sans-Serif" font-size="14.00">saveGame(name)</text>
<text text-anchor="middle" x="1532" y="-957.99" font-family="Helvetica,sans-Serif" font-size="14.00">Board.saveGameState()</text>
<text text-anchor="middle" x="1532" y="-942.99" font-family="Helvetica,sans-Serif" font-size="14.00">write saves/&lt;name&gt;.sav</text>
</g>
<!-- proc&#45;&gt;save -->
<g id="edge17" class="edge">
<title>proc&#45;&gt;save</title>
<path fill="none" stroke="black" d="M838.5,-1069.34C961.32,-1065.05 1209.78,-1051 1426.36,-1003.2"/>
<polygon fill="black" stroke="black" points="1427.33,-1006.57 1436.33,-1000.98 1425.8,-999.74 1427.33,-1006.57"/>
<text text-anchor="middle" x="1369" y="-1024.99" font-family="Helvetica,sans-Serif" font-size="14.00">save &lt;name&gt;</text>
</g>
<!-- load -->
<g id="node15" class="node">
<title>load</title>
<polygon fill="none" stroke="black" points="1218,-1003.19 1040,-1003.19 1040,-935.19 1218,-935.19 1218,-1003.19"/>
<text text-anchor="middle" x="1129" y="-987.99" font-family="Helvetica,sans-Serif" font-size="14.00">load &lt;name&gt;</text>
<text text-anchor="middle" x="1129" y="-972.99" font-family="Helvetica,sans-Serif" font-size="14.00">read file</text>
<text text-anchor="middle" x="1129" y="-957.99" font-family="Helvetica,sans-Serif" font-size="14.00">Board.loadGameState()</text>
<text text-anchor="middle" x="1129" y="-942.99" font-family="Helvetica,sans-Serif" font-size="14.00">restore players/current</text>
</g>
<!-- proc&#45;&gt;load -->
<g id="edge19" class="edge">
<title>proc&#45;&gt;load</title>
<path fill="none" stroke="black" d="M824.07,-1054.13C844.18,-1048.52 866.56,-1042.18 887,-1036.19 908.86,-1029.79 913.89,-1026.66 936,-1021.19 974.87,-1011.59 987.69,-1013.7 1030.12,-1003.27"/>
<polygon fill="black" stroke="black" points="1031.13,-1006.62 1039.96,-1000.76 1029.4,-999.84 1031.13,-1006.62"/>
<text text-anchor="middle" x="984.5" y="-1024.99" font-family="Helvetica,sans-Serif" font-size="14.00">load &lt;name&gt;</text>
</g>
<!-- quit -->
<g id="node16" class="node">
<title>quit</title>
<polygon fill="none" stroke="black" points="1021.5,-995.69 704.5,-995.69 704.5,-942.69 1021.5,-942.69 1021.5,-995.69"/>
<text text-anchor="middle" x="863" y="-980.49" font-family="Helvetica,sans-Serif" font-size="14.00">quit | q</text>
<text text-anchor="middle" x="863" y="-965.49" font-family="Helvetica,sans-Serif" font-size="14.00">logGameEnd(&#39;quit by player&#39;)</text>
<text text-anchor="middle" x="863" y="-950.49" font-family="Helvetica,sans-Serif" font-size="14.00">set gameEnded=true, gameRunning=false</text>
</g>
<!-- proc&#45;&gt;quit -->
<g id="edge21" class="edge">
<title>proc&#45;&gt;quit</title>
<path fill="none" stroke="black" d="M797,-1054.09C805.41,-1049.03 813.99,-1042.99 821,-1036.19 830.37,-1027.11 838.63,-1015.55 845.28,-1004.65"/>
<polygon fill="black" stroke="black" points="848.47,-1006.12 850.48,-995.71 842.43,-1002.59 848.47,-1006.12"/>
<text text-anchor="middle" x="858" y="-1024.99" font-family="Helvetica,sans-Serif" font-size="14.00">quit | q</text>
</g>
<!-- castle -->
<g id="node17" class="node">
<title>castle</title>
<polygon fill="none" stroke="black" points="563.5,-917.19 348.5,-917.19 348.5,-879.19 563.5,-879.19 563.5,-917.19"/>
<text text-anchor="middle" x="456" y="-901.99" font-family="Helvetica,sans-Serif" font-size="14.00">handleCastling(k/q)</text>
<text text-anchor="middle" x="456" y="-886.99" font-family="Helvetica,sans-Serif" font-size="14.00">makeMove() with king 2 cols</text>
</g>
<!-- proc&#45;&gt;castle -->
<g id="edge23" class="edge">
<title>proc&#45;&gt;castle</title>
<path fill="none" stroke="black" d="M685.19,-1070.33C616.55,-1067.95 522.66,-1060.23 495,-1036.19 459.84,-1005.64 480.03,-979.92 467,-935.19 466.24,-932.58 465.43,-929.86 464.62,-927.14"/>
<polygon fill="black" stroke="black" points="467.94,-926.04 461.69,-917.48 461.24,-928.07 467.94,-926.04"/>
<text text-anchor="middle" x="575.5" y="-1024.99" font-family="Helvetica,sans-Serif" font-size="14.00">o&#45;o | 0&#45;0 | o&#45;o&#45;o | 0&#45;0&#45;0</text>
</g>
<!-- parsemove -->
<g id="node18" class="node">
<title>parsemove</title>
<polygon fill="none" stroke="black" points="686,-987.19 496,-987.19 496,-951.19 686,-951.19 686,-987.19"/>
<text text-anchor="middle" x="591" y="-965.49" font-family="Helvetica,sans-Serif" font-size="14.00">parse &#39;e2e4&#39; &#45;&gt; Positions</text>
</g>
<!-- proc&#45;&gt;parsemove -->
<g id="edge26" class="edge">
<title>proc&#45;&gt;parsemove</title>
<path fill="none" stroke="black" d="M719.96,-1054.14C708.1,-1048.84 695.34,-1042.68 684,-1036.19 661.99,-1023.61 638.73,-1007.1 620.98,-993.74"/>
<polygon fill="black" stroke="black" points="622.82,-990.74 612.74,-987.47 618.58,-996.31 622.82,-990.74"/>
<text text-anchor="middle" x="750.5" y="-1024.99" font-family="Helvetica,sans-Serif" font-size="14.00">e2e4&#45;like (len==4)</text>
</g>
<!-- help&#45;&gt;loop_chk -->
<g id="edge12" class="edge">
<title>help&#45;&gt;loop_chk</title>
<path fill="none" stroke="black" d="M372.02,-987.36C322.78,-1014.05 234,-1063.26 234,-1071.19 234,-1322.19 234,-1322.19 234,-1322.19 234,-1352.28 226.14,-1368.64 249,-1388.19 273.69,-1409.32 436.25,-1417.74 571.86,-1421.07"/>
<polygon fill="black" stroke="black" points="571.91,-1424.57 581.99,-1421.31 572.08,-1417.57 571.91,-1424.57"/>
</g>
<!-- pip&#45;&gt;loop_chk -->
<g id="edge14" class="edge">
<title>pip&#45;&gt;loop_chk</title>
<path fill="none" stroke="black" d="M194,-988.44C194,-1008.67 194,-1042.26 194,-1071.19 194,-1322.19 194,-1322.19 194,-1322.19 194,-1356.04 203.27,-1370.3 232,-1388.19 261.83,-1406.78 444.12,-1415.64 586.69,-1419.77"/>
<polygon fill="black" stroke="black" points="586.79,-1423.28 596.88,-1420.06 586.99,-1416.28 586.79,-1423.28"/>
</g>
<!-- displaycmd&#45;&gt;loop_chk -->
<g id="edge16" class="edge">
<title>displaycmd&#45;&gt;loop_chk</title>
<path fill="none" stroke="black" d="M1271.46,-995.96C1260.6,-1002.94 1250.09,-1011.36 1242,-1021.19 1227,-1039.44 1224,-1047.58 1224,-1071.19 1224,-1322.19 1224,-1322.19 1224,-1322.19 1224,-1385.66 1055.51,-1409.31 922.04,-1418.08"/>
<polygon fill="black" stroke="black" points="921.44,-1414.61 911.68,-1418.74 921.88,-1421.6 921.44,-1414.61"/>
</g>
<!-- save&#45;&gt;loop_chk -->
<g id="edge18" class="edge">
<title>save&#45;&gt;loop_chk</title>
<path fill="none" stroke="black" d="M1481.52,-1003.23C1461.43,-1020.6 1443,-1043.97 1443,-1071.19 1443,-1322.19 1443,-1322.19 1443,-1322.19 1443,-1376.49 1099.88,-1404.6 900.74,-1416.33"/>
<polygon fill="black" stroke="black" points="900.27,-1412.85 890.49,-1416.93 900.68,-1419.84 900.27,-1412.85"/>
</g>
<!-- load&#45;&gt;loop_chk -->
<g id="edge20" class="edge">
<title>load&#45;&gt;loop_chk</title>
<path fill="none" stroke="black" d="M1122.08,-1003.24C1118.55,-1022.89 1115,-1048.36 1115,-1071.19 1115,-1322.19 1115,-1322.19 1115,-1322.19 1115,-1373.71 974.31,-1400.43 870.56,-1413.14"/>
<polygon fill="black" stroke="black" points="869.84,-1409.7 860.33,-1414.36 870.67,-1416.65 869.84,-1409.7"/>
</g>
<!-- quit&#45;&gt;cleanup -->
<g id="edge22" class="edge">
<title>quit&#45;&gt;cleanup</title>
<path fill="none" stroke="black" d="M990.88,-942.65C1004.42,-940.08 1017.98,-937.55 1031,-935.19 1153.34,-913.1 1583,-968.52 1583,-844.19 1583,-844.19 1583,-844.19 1583,-232.69 1583,-215.64 1612.09,-193.84 1643.26,-175.38"/>
<polygon fill="black" stroke="black" points="1645.18,-178.31 1652.08,-170.26 1641.67,-172.25 1645.18,-178.31"/>
</g>
<!-- switchp -->
<g id="node27" class="node">
<title>switchp</title>
<polygon fill="none" stroke="black" points="514,-154.19 400,-154.19 400,-118.19 514,-118.19 514,-154.19"/>
<text text-anchor="middle" x="457" y="-132.49" font-family="Helvetica,sans-Serif" font-size="14.00">switchPlayer()</text>
</g>
<!-- castle&#45;&gt;switchp -->
<g id="edge24" class="edge">
<title>castle&#45;&gt;switchp</title>
<path fill="none" stroke="black" d="M452.7,-879.12C449.46,-859.79 445,-828.18 445,-800.69 445,-800.69 445,-800.69 445,-232.69 445,-209.54 448.52,-183.47 451.74,-164.43"/>
<polygon fill="black" stroke="black" points="455.23,-164.82 453.53,-154.37 448.33,-163.6 455.23,-164.82"/>
</g>
<!-- valid -->
<g id="node19" class="node">
<title>valid</title>
<polygon fill="none" stroke="black" points="602,-861.19 464.25,-843.19 602,-825.19 739.75,-843.19 602,-861.19"/>
<text text-anchor="middle" x="602" y="-839.49" font-family="Helvetica,sans-Serif" font-size="14.00">Board.isValidMove?</text>
</g>
<!-- parsemove&#45;&gt;valid -->
<g id="edge27" class="edge">
<title>parsemove&#45;&gt;valid</title>
<path fill="none" stroke="black" d="M592.53,-950.95C594.36,-930.32 597.45,-895.51 599.6,-871.28"/>
<polygon fill="black" stroke="black" points="603.09,-871.56 600.48,-861.29 596.11,-870.94 603.09,-871.56"/>
</g>
<!-- execmove -->
<g id="node20" class="node">
<title>execmove</title>
<polygon fill="none" stroke="black" points="731,-774.19 477,-774.19 477,-721.19 731,-721.19 731,-774.19"/>
<text text-anchor="middle" x="604" y="-758.99" font-family="Helvetica,sans-Serif" font-size="14.00">Board.makeMove()</text>
<text text-anchor="middle" x="604" y="-743.99" font-family="Helvetica,sans-Serif" font-size="14.00">&#45; castling/en passant/regular</text>
<text text-anchor="middle" x="604" y="-728.99" font-family="Helvetica,sans-Serif" font-size="14.00">&#45; update rights/en passant/history</text>
</g>
<!-- valid&#45;&gt;execmove -->
<g id="edge30" class="edge">
<title>valid&#45;&gt;execmove</title>
<path fill="none" stroke="black" d="M602.37,-825.05C602.61,-813.7 602.94,-798.41 603.23,-784.49"/>
<polygon fill="black" stroke="black" points="606.74,-784.27 603.45,-774.2 599.74,-784.12 606.74,-784.27"/>
<text text-anchor="middle" x="614.5" y="-795.99" font-family="Helvetica,sans-Serif" font-size="14.00">Yes</text>
</g>
<!-- invalid -->
<g id="node28" class="node">
<title>invalid</title>
<polygon fill="none" stroke="black" points="316.5,-765.69 113.5,-765.69 113.5,-729.69 316.5,-729.69 316.5,-765.69"/>
<text text-anchor="middle" x="215" y="-743.99" font-family="Helvetica,sans-Serif" font-size="14.00">Print &#39;Invalid&#39; and continue</text>
</g>
<!-- valid&#45;&gt;invalid -->
<g id="edge28" class="edge">
<title>valid&#45;&gt;invalid</title>
<path fill="none" stroke="black" d="M556.09,-831.1C491.86,-815.58 374.22,-787.16 295.32,-768.1"/>
<polygon fill="black" stroke="black" points="295.95,-764.65 285.41,-765.71 294.31,-771.46 295.95,-764.65"/>
<text text-anchor="middle" x="463.5" y="-795.99" font-family="Helvetica,sans-Serif" font-size="14.00">No</text>
</g>
<!-- logmove -->
<g id="node21" class="node">
<title>logmove</title>
<polygon fill="none" stroke="black" points="691.5,-684.19 518.5,-684.19 518.5,-648.19 691.5,-648.19 691.5,-684.19"/>
<text text-anchor="middle" x="605" y="-662.49" font-family="Helvetica,sans-Serif" font-size="14.00">MoveLogger.logMove()</text>
</g>
<!-- execmove&#45;&gt;logmove -->
<g id="edge31" class="edge">
<title>execmove&#45;&gt;logmove</title>
<path fill="none" stroke="black" d="M604.32,-721.1C604.43,-712.68 604.55,-703.28 604.65,-694.71"/>
<polygon fill="black" stroke="black" points="608.16,-694.49 604.78,-684.45 601.16,-694.41 608.16,-694.49"/>
</g>
<!-- promo -->
<g id="node22" class="node">
<title>promo</title>
<polygon fill="none" stroke="black" points="606,-611.19 463.56,-593.19 606,-575.19 748.44,-593.19 606,-611.19"/>
<text text-anchor="middle" x="606" y="-589.49" font-family="Helvetica,sans-Serif" font-size="14.00">Pawn on back rank?</text>
</g>
<!-- logmove&#45;&gt;promo -->
<g id="edge32" class="edge">
<title>logmove&#45;&gt;promo</title>
<path fill="none" stroke="black" d="M605.24,-648.01C605.36,-639.98 605.49,-630.24 605.62,-621.26"/>
<polygon fill="black" stroke="black" points="609.12,-621.27 605.76,-611.22 602.12,-621.17 609.12,-621.27"/>
</g>
<!-- dopromo -->
<g id="node23" class="node">
<title>dopromo</title>
<polygon fill="none" stroke="black" points="754,-524.19 636,-524.19 636,-471.19 754,-471.19 754,-524.19"/>
<text text-anchor="middle" x="695" y="-508.99" font-family="Helvetica,sans-Serif" font-size="14.00">Promote pawn</text>
<text text-anchor="middle" x="695" y="-493.99" font-family="Helvetica,sans-Serif" font-size="14.00">board.setPiece</text>
<text text-anchor="middle" x="695" y="-478.99" font-family="Helvetica,sans-Serif" font-size="14.00">logPromotion</text>
</g>
<!-- promo&#45;&gt;dopromo -->
<g id="edge33" class="edge">
<title>promo&#45;&gt;dopromo</title>
<path fill="none" stroke="black" d="M620.7,-576.76C632.32,-564.54 648.97,-547.05 663.56,-531.72"/>
<polygon fill="black" stroke="black" points="666.17,-534.06 670.53,-524.4 661.1,-529.23 666.17,-534.06"/>
<text text-anchor="middle" x="664.5" y="-545.99" font-family="Helvetica,sans-Serif" font-size="14.00">Yes</text>
</g>
<!-- checkOpp -->
<g id="node24" class="node">
<title>checkOpp</title>
<polygon fill="none" stroke="black" points="690,-434.19 494.44,-416.19 690,-398.19 885.56,-416.19 690,-434.19"/>
<text text-anchor="middle" x="690" y="-412.49" font-family="Helvetica,sans-Serif" font-size="14.00">Board.isInCheck(opponent)?</text>
</g>
<!-- promo&#45;&gt;checkOpp -->
<g id="edge35" class="edge">
<title>promo&#45;&gt;checkOpp</title>
<path fill="none" stroke="black" d="M601.7,-575.71C596.27,-551.21 589.69,-504.52 608,-471.19 616.29,-456.1 630.81,-444.51 645.35,-436.01"/>
<polygon fill="black" stroke="black" points="647.24,-438.97 654.35,-431.11 643.9,-432.82 647.24,-438.97"/>
<text text-anchor="middle" x="617.5" y="-493.99" font-family="Helvetica,sans-Serif" font-size="14.00">No</text>
</g>
<!-- dopromo&#45;&gt;checkOpp -->
<g id="edge34" class="edge">
<title>dopromo&#45;&gt;checkOpp</title>
<path fill="none" stroke="black" d="M693.39,-471.1C692.86,-462.68 692.27,-453.28 691.73,-444.71"/>
<polygon fill="black" stroke="black" points="695.21,-444.21 691.09,-434.45 688.22,-444.65 695.21,-444.21"/>
</g>
<!-- mate -->
<g id="node25" class="node">
<title>mate</title>
<polygon fill="none" stroke="black" points="673,-347.19 465.04,-329.19 673,-311.19 880.96,-329.19 673,-347.19"/>
<text text-anchor="middle" x="673" y="-325.49" font-family="Helvetica,sans-Serif" font-size="14.00">hasAnyLegalMove(opponent)?</text>
</g>
<!-- checkOpp&#45;&gt;mate -->
<g id="edge36" class="edge">
<title>checkOpp&#45;&gt;mate</title>
<path fill="none" stroke="black" d="M686.64,-398.4C684.29,-386.64 681.1,-370.68 678.39,-357.15"/>
<polygon fill="black" stroke="black" points="681.74,-356.07 676.35,-346.95 674.88,-357.45 681.74,-356.07"/>
<text text-anchor="middle" x="711.5" y="-368.99" font-family="Helvetica,sans-Serif" font-size="14.00">In check</text>
</g>
<!-- stalemate -->
<g id="node26" class="node">
<title>stalemate</title>
<polygon fill="none" stroke="black" points="1106,-347.19 898.04,-329.19 1106,-311.19 1313.96,-329.19 1106,-347.19"/>
<text text-anchor="middle" x="1106" y="-325.49" font-family="Helvetica,sans-Serif" font-size="14.00">hasAnyLegalMove(opponent)?</text>
</g>
<!-- checkOpp&#45;&gt;stalemate -->
<g id="edge41" class="edge">
<title>checkOpp&#45;&gt;stalemate</title>
<path fill="none" stroke="black" d="M747.41,-403.47C823.18,-387.98 956.42,-360.76 1037.41,-344.21"/>
<polygon fill="black" stroke="black" points="1038.41,-347.58 1047.51,-342.15 1037.01,-340.72 1038.41,-347.58"/>
<text text-anchor="middle" x="965.5" y="-368.99" font-family="Helvetica,sans-Serif" font-size="14.00">Not in check</text>
</g>
<!-- loop_cont1 -->
<g id="node29" class="node">
<title>loop_cont1</title>
<ellipse fill="black" stroke="black" cx="485" cy="-233.69" rx="1.8" ry="1.8"/>
</g>
<!-- mate&#45;&gt;loop_cont1 -->
<g id="edge39" class="edge">
<title>mate&#45;&gt;loop_cont1</title>
<path fill="none" stroke="black" d="M643.62,-313.59C600.83,-292.3 523.41,-253.8 495.43,-239.88"/>
<polygon fill="black" stroke="black" points="496.71,-236.61 486.2,-235.29 493.6,-242.88 496.71,-236.61"/>
<text text-anchor="middle" x="657.5" y="-281.99" font-family="Helvetica,sans-Serif" font-size="14.00">Yes (has moves)</text>
</g>
<!-- win -->
<g id="node30" class="node">
<title>win</title>
<polygon fill="none" stroke="black" points="1252,-260.19 1136,-260.19 1136,-207.19 1252,-207.19 1252,-260.19"/>
<text text-anchor="middle" x="1194" y="-244.99" font-family="Helvetica,sans-Serif" font-size="14.00">Checkmate</text>
<text text-anchor="middle" x="1194" y="-229.99" font-family="Helvetica,sans-Serif" font-size="14.00">logCheckmate</text>
<text text-anchor="middle" x="1194" y="-214.99" font-family="Helvetica,sans-Serif" font-size="14.00">end game</text>
</g>
<!-- mate&#45;&gt;win -->
<g id="edge37" class="edge">
<title>mate&#45;&gt;win</title>
<path fill="none" stroke="black" d="M739.49,-316.94C816.99,-303.74 948.89,-281 1062,-260.19 1082.81,-256.37 1105.44,-252.05 1125.98,-248.07"/>
<polygon fill="black" stroke="black" points="1126.74,-251.49 1135.89,-246.15 1125.4,-244.62 1126.74,-251.49"/>
<text text-anchor="middle" x="1010" y="-281.99" font-family="Helvetica,sans-Serif" font-size="14.00">No (checkmate)</text>
</g>
<!-- stalemate&#45;&gt;switchp -->
<g id="edge44" class="edge">
<title>stalemate&#45;&gt;switchp</title>
<path fill="none" stroke="black" d="M1072.13,-314.08C1046.09,-303.49 1009.09,-289.02 976,-278.19 815.78,-225.77 623.4,-177.16 523.92,-153.06"/>
<polygon fill="black" stroke="black" points="524.55,-149.61 514.01,-150.66 522.9,-156.41 524.55,-149.61"/>
<text text-anchor="middle" x="952.5" y="-229.99" font-family="Helvetica,sans-Serif" font-size="14.00">Has moves</text>
</g>
<!-- draw -->
<g id="node31" class="node">
<title>draw</title>
<polygon fill="none" stroke="black" points="1495.5,-260.19 1388.5,-260.19 1388.5,-207.19 1495.5,-207.19 1495.5,-260.19"/>
<text text-anchor="middle" x="1442" y="-244.99" font-family="Helvetica,sans-Serif" font-size="14.00">Stalemate</text>
<text text-anchor="middle" x="1442" y="-229.99" font-family="Helvetica,sans-Serif" font-size="14.00">logStalemate</text>
<text text-anchor="middle" x="1442" y="-214.99" font-family="Helvetica,sans-Serif" font-size="14.00">end game</text>
</g>
<!-- stalemate&#45;&gt;draw -->
<g id="edge42" class="edge">
<title>stalemate&#45;&gt;draw</title>
<path fill="none" stroke="black" d="M1152.72,-315.19C1211.55,-298.82 1312.86,-270.63 1378.63,-252.33"/>
<polygon fill="black" stroke="black" points="1379.77,-255.64 1388.47,-249.59 1377.9,-248.9 1379.77,-255.64"/>
<text text-anchor="middle" x="1319" y="-281.99" font-family="Helvetica,sans-Serif" font-size="14.00">No moves</text>
</g>
<!-- switchp&#45;&gt;loop_chk -->
<g id="edge25" class="edge">
<title>switchp&#45;&gt;loop_chk</title>
<path fill="none" stroke="black" d="M399.93,-137.75C280.88,-140.46 17,-155.21 17,-232.69 17,-1322.19 17,-1322.19 17,-1322.19 17,-1412.01 119.94,-1370.54 208,-1388.19 281.29,-1402.89 469.16,-1412.63 605.85,-1418.02"/>
<polygon fill="black" stroke="black" points="605.89,-1421.52 616.02,-1418.42 606.16,-1414.53 605.89,-1421.52"/>
</g>
<!-- invalid&#45;&gt;loop_chk -->
<g id="edge29" class="edge">
<title>invalid&#45;&gt;loop_chk</title>
<path fill="none" stroke="black" d="M188.19,-765.8C128.52,-806.1 -5.99,-910.61 47,-1003.19 190.83,-1254.5 550,-1370.17 697.36,-1408.22"/>
<polygon fill="black" stroke="black" points="696.62,-1411.64 707.18,-1410.72 698.35,-1404.86 696.62,-1411.64"/>
</g>
<!-- loop_cont1&#45;&gt;switchp -->
<g id="edge40" class="edge">
<title>loop_cont1&#45;&gt;switchp</title>
<path fill="none" stroke="black" d="M484.69,-231.62C482.76,-225.07 472.43,-189.84 464.95,-164.32"/>
<polygon fill="black" stroke="black" points="468.23,-163.05 462.05,-154.43 461.51,-165.01 468.23,-163.05"/>
</g>
<!-- win&#45;&gt;cleanup -->
<g id="edge38" class="edge">
<title>win&#45;&gt;cleanup</title>
<path fill="none" stroke="black" d="M1252.22,-224.74C1359.82,-210 1583.24,-179.29 1633.97,-170.93"/>
<polygon fill="black" stroke="black" points="1634.65,-174.36 1643.84,-169.09 1633.37,-167.48 1634.65,-174.36"/>
</g>
<!-- draw&#45;&gt;cleanup -->
<g id="edge43" class="edge">
<title>draw&#45;&gt;cleanup</title>
<path fill="none" stroke="black" d="M1495.73,-212.68C1518.22,-204.62 1544.73,-195.51 1569,-188.19 1597,-179.76 1607.09,-180.32 1633.97,-172.06"/>
<polygon fill="black" stroke="black" points="1635.34,-175.3 1643.79,-168.9 1633.19,-168.64 1635.34,-175.3"/>
</g>
<!-- cleanup&#45;&gt;End -->
<g id="edge45" class="edge">
<title>cleanup&#45;&gt;End</title>
<path fill="none" stroke="black" d="M1718,-101.93C1718,-93.44 1718,-84.21 1718,-75.36"/>
<polygon fill="black" stroke="black" points="1721.5,-75.21 1718,-65.21 1714.5,-75.21 1721.5,-75.21"/>
</g>
</g>
</svg>
